<svg width="26" height="26" viewBox="0 0 26 26" fill="none" xmlns="http://www.w3.org/2000/svg">
<path d="M13 0C5.832 0 0 5.832 0 13C0 20.168 5.832 26 13 26C20.168 26 26 20.168 26 13C26 5.832 20.168 0 13 0ZM11.875 2.063C11.918 2.059 11.957 2.066 12 2.063V12H8.937C8.73584 9.27297 7.67499 6.68 5.907 4.594C7.551 3.204 9.605 2.293 11.875 2.062V2.063ZM14 2.063C16.244 2.25609 18.373 3.13998 20.094 4.593C18.3251 6.67901 17.2635 9.27239 17.062 12H14V2.063ZM4.5 6.03C5.8975 7.72778 6.74754 9.80929 6.938 12H2.061C2.25372 9.80997 3.1039 7.72932 4.5 6.031V6.03ZM21.5 6.03C22.8959 7.72872 23.7458 9.80973 23.938 12H19.063C19.2534 9.80975 20.103 7.72862 21.5 6.031V6.03ZM2.062 14H6.937C6.74663 16.1902 5.89696 18.2714 4.5 19.969C3.10426 18.2706 2.25444 16.1899 2.062 14ZM8.937 14H12V23.938C9.75574 23.7443 7.6267 22.8597 5.906 21.406C7.67435 19.3201 8.73556 16.7271 8.937 14ZM14 14H17.063C17.2642 16.727 18.325 19.32 20.093 21.406C18.3726 22.8596 16.2439 23.7441 14 23.938V14ZM19.063 14H23.938C23.7456 16.1899 22.8957 18.2706 21.5 19.969C20.1027 18.2715 19.2527 16.1904 19.062 14H19.063Z" fill="white"/>
</svg>
