<svg width="26" height="26" viewBox="0 0 26 26" fill="none" xmlns="http://www.w3.org/2000/svg">
<path d="M3.92797 1.37067L13 10.4427L22.0346 1.408C22.193 1.23947 22.3837 1.10466 22.5954 1.01164C22.8071 0.918617 23.0354 0.869309 23.2666 0.866669C23.7617 0.866669 24.2365 1.06333 24.5866 1.4134C24.9366 1.76347 25.1333 2.23826 25.1333 2.73334C25.1377 2.96219 25.0952 3.18952 25.0085 3.40138C24.9219 3.61324 24.7928 3.80515 24.6293 3.96534L15.5013 13L24.6293 22.128C24.937 22.429 25.1174 22.8366 25.1333 23.2667C25.1333 23.7617 24.9366 24.2365 24.5866 24.5866C24.2365 24.9367 23.7617 25.1333 23.2666 25.1333C23.0287 25.1432 22.7914 25.1035 22.5697 25.0167C22.3479 24.93 22.1467 24.798 21.9786 24.6293L13 15.5573L3.94664 24.6107C3.78891 24.7736 3.60049 24.9036 3.39224 24.9933C3.18399 25.0831 2.96004 25.1306 2.7333 25.1333C2.23823 25.1333 1.76344 24.9367 1.41337 24.5866C1.0633 24.2365 0.866637 23.7617 0.866637 23.2667C0.862285 23.0378 0.904746 22.8105 0.991414 22.5986C1.07808 22.3868 1.20713 22.1949 1.37064 22.0347L10.4986 13L1.37064 3.872C1.06298 3.57102 0.882577 3.16344 0.866637 2.73334C0.866637 2.23826 1.0633 1.76347 1.41337 1.4134C1.76344 1.06333 2.23823 0.866669 2.7333 0.866669C3.1813 0.872269 3.61064 1.05334 3.92797 1.37067Z" fill="#302E2E"/>
</svg>
