<svg width="32" height="32" viewBox="0 0 32 32" fill="none" xmlns="http://www.w3.org/2000/svg">
<path d="M19.8872 9.48733L21.8308 12.8025C22.9414 11.6974 24.1909 10.9792 25.5792 10.9792C29.0846 10.9792 32 15.5652 32 21.201C32 26.7815 29.0846 31.3676 25.5792 31.3676C22.4208 31.3676 19.7831 27.7761 19.2625 22.9138L16.3818 23.1901H16.3471C16.1041 23.1901 15.9306 22.9691 15.7571 22.7481L9.85683 11.0897L9.50976 12.25C11.4534 14.0181 12.8416 17.3333 12.8416 21.201C12.8416 26.7815 9.92625 31.3676 6.38612 31.3676C2.88069 31.3676 0 26.7815 0 21.201C0 15.5652 2.88069 10.9792 6.38612 10.9792C6.94143 10.9792 7.46204 11.0897 7.98265 11.2554L9.44035 5.17758L5.44902 3.46474C5.06725 3.29898 4.78959 2.63594 4.89371 2.02816C5.03254 1.36512 5.44902 0.923096 5.86551 1.08885L10.6551 3.24373C10.8633 3.29898 11.1063 3.57524 11.1757 3.90676C11.2451 4.12778 11.2798 4.51455 11.2104 4.84607L10.8633 6.11689L18.5336 8.43752L19.5401 3.6305L18.1518 3.79626H18.1171C17.7007 3.79626 17.3536 3.13322 17.3536 2.52544C17.3536 1.91765 17.6659 1.30987 18.1171 1.25461L22.6291 0.923096C23.0456 0.923096 23.4273 1.47563 23.4273 2.13866C23.462 2.85695 23.0803 3.35423 22.6985 3.40949L21.1714 3.51999L19.8872 9.48733ZM16.0694 19.3776L17.9783 10.7029L10.5163 8.54802L16.0694 19.3776ZM17.4577 20.6485L19.1931 20.4827C19.2625 18.2173 19.8178 16.173 20.7202 14.5154L19.2972 12.0842L17.4577 20.6485ZM5.76139 20.7037L7.42733 13.6313C7.11497 13.5208 6.73319 13.4655 6.38612 13.4655C3.71367 13.4655 1.56182 16.8912 1.56182 21.201C1.56182 25.4555 3.71367 28.8812 6.38612 28.8812C9.05857 28.8812 11.2798 25.4555 11.2798 21.201C11.2798 18.3831 10.3427 15.8967 8.95445 14.5706L7.21909 21.5878C7.04555 22.1955 6.59436 22.4718 6.17787 22.2508C5.7961 21.9745 5.62256 21.3115 5.76139 20.7037ZM25.5792 22.3613L20.8243 22.8033C21.3102 26.2843 23.2191 28.8812 25.5792 28.8812C28.2516 28.8812 30.4382 25.4555 30.4382 21.201C30.4382 16.8912 28.2516 13.4655 25.5792 13.4655C24.5727 13.4655 23.6703 13.8523 22.9067 14.6811L26.1345 20.3722C26.308 20.759 26.4121 21.2562 26.2733 21.643C26.1692 22.085 25.8915 22.3613 25.5792 22.3613ZM20.7549 20.3722L23.9132 20.0959L21.7614 16.3387C21.2061 17.5543 20.8243 18.8251 20.7549 20.3722Z" fill="white"/>
</svg>
