<svg width="25" height="24" viewBox="0 0 25 24" fill="none" xmlns="http://www.w3.org/2000/svg">
<path d="M5.75004 19.5H19.25C19.4375 19.4997 19.6182 19.5695 19.7567 19.6958C19.8952 19.822 19.9814 19.9956 19.9984 20.1822C20.0153 20.3689 19.9617 20.5551 19.8482 20.7042C19.7347 20.8534 19.5695 20.9546 19.385 20.988L19.25 21H5.75004C5.56262 21.0003 5.38186 20.9305 5.24336 20.8042C5.10487 20.678 5.01866 20.5044 5.00173 20.3178C4.98479 20.1311 5.03836 19.9449 5.15187 19.7958C5.26538 19.6466 5.43062 19.5454 5.61504 19.512L5.75004 19.5H19.25H5.75004ZM12.365 1.512L12.5 1.5C12.6756 1.49994 12.8456 1.56146 12.9804 1.67383C13.1153 1.78621 13.2064 1.94233 13.238 2.115L13.25 2.25V15.438L17.273 11.4165C17.3971 11.2923 17.5609 11.2155 17.7358 11.1996C17.9107 11.1837 18.0856 11.2297 18.23 11.3295L18.335 11.4165C18.4591 11.5408 18.5355 11.7046 18.5512 11.8795C18.5668 12.0544 18.5206 12.2292 18.4205 12.3735L18.3335 12.477L13.031 17.781C12.9068 17.905 12.7429 17.9815 12.568 17.9971C12.3932 18.0127 12.2183 17.9665 12.074 17.8665L11.969 17.781L6.66654 12.477C6.53366 12.3447 6.45516 12.1675 6.44649 11.9802C6.43782 11.7929 6.49961 11.6091 6.6197 11.4651C6.73979 11.3211 6.90946 11.2273 7.09527 11.2022C7.28107 11.1771 7.46955 11.2225 7.62354 11.3295L7.72704 11.4165L11.75 15.438V2.25C11.75 2.07446 11.8115 1.90446 11.9239 1.76961C12.0363 1.63476 12.1924 1.5436 12.365 1.512L12.5 1.5L12.365 1.512Z" fill="white"/>
</svg>
