<svg width="26" height="24" viewBox="0 0 26 24" fill="none" xmlns="http://www.w3.org/2000/svg">
<path d="M9 0C7.348 0 6 1.348 6 3V15.625L7 14.906L8 15.625V3C8 2.45 8.45 2 9 2H10V0H9ZM21 0C19.348 0 18 1.348 18 3V4H9V6H18V8H9V10H18V12H9V14H18V15.625L19 14.906L20 15.625V3C20 2.45 20.45 2 21 2H22V0H21ZM7 16.719L6.375 17.219C6.375 17.219 5.371 18 4.031 18C2.691 18 1.625 17.219 1.625 17.219L0.375 18.781C0.375 18.781 1.918 20 4.031 20C5.492 20 6.421 19.516 7 19.156C7.582 19.512 8.559 20 10.031 20C11.492 20 12.421 19.516 13 19.156C13.582 19.512 14.559 20 16.031 20C17.492 20 18.421 19.516 19 19.156C19.582 19.512 20.559 20 22.031 20C24.145 20 25.625 18.781 25.625 18.781L24.375 17.219C24.375 17.219 23.371 18 22.031 18C20.691 18 19.625 17.219 19.625 17.219L19 16.719L18.375 17.219C18.375 17.219 17.371 18 16.031 18C14.691 18 13.625 17.219 13.625 17.219L13 16.719L12.375 17.219C12.375 17.219 11.371 18 10.031 18C8.691 18 7.625 17.219 7.625 17.219L7 16.719ZM7 20.719L6.375 21.219C6.375 21.219 5.371 22 4.031 22C2.691 22 1.625 21.219 1.625 21.219L0.375 22.781C0.375 22.781 1.918 24 4.031 24C5.492 24 6.421 23.516 7 23.156C7.582 23.512 8.559 24 10.031 24C11.492 24 12.421 23.516 13 23.156C13.582 23.512 14.559 24 16.031 24C17.492 24 18.421 23.516 19 23.156C19.582 23.512 20.559 24 22.031 24C24.145 24 25.625 22.781 25.625 22.781L24.375 21.219C24.375 21.219 23.371 22 22.031 22C20.691 22 19.625 21.219 19.625 21.219L19 20.719L18.375 21.219C18.375 21.219 17.371 22 16.031 22C14.691 22 13.625 21.219 13.625 21.219L13 20.719L12.375 21.219C12.375 21.219 11.371 22 10.031 22C8.691 22 7.625 21.219 7.625 21.219L7 20.719Z" fill="white"/>
</svg>
