<svg width="30" height="30" viewBox="0 0 30 30" fill="none" xmlns="http://www.w3.org/2000/svg">
<path d="M28.1805 9.7155C27.993 9.756 25.476 10.3425 22.251 12.3765C21.7665 10.026 20.3325 5.625 16.089 1.149L15 0L13.911 1.1505C9.6525 5.643 8.2245 10.056 7.7445 12.4215C4.5075 10.353 2.01 9.759 1.827 9.717L0 9.309V11.181C0 22.116 5.8875 29.181 15 29.181C23.9715 29.181 30 21.948 30 11.181V9.318L28.1805 9.7155ZM10.4985 14.238C10.5015 14.1885 10.7265 9.588 15 4.44C19.221 9.54 19.4985 14.181 19.5 14.181V14.3685C17.8178 15.7664 16.3028 17.3539 14.985 19.0995C13.6635 17.3847 12.1591 15.819 10.4985 14.43V14.238ZM15 26.181C7.026 26.181 3.6765 19.887 3.0945 13.335C5.577 14.412 10.0185 16.974 13.755 22.5195L15.0165 24.393L16.254 22.503C19.893 16.941 24.3915 14.3865 26.898 13.32C26.301 19.662 22.956 26.181 15 26.181Z" fill="white"/>
</svg>
